<?xml version="1.0" encoding="UTF-8"?><svg id="Layer_1" xmlns="http://www.w3.org/2000/svg" viewBox="0 0 100 100"><defs><style>.cls-1{fill:#1c9ecf;}.cls-2{fill:#74b343;}</style></defs><polygon class="cls-1" points="31.02 29.52 0 29.52 0 38.01 10.46 38.01 10.46 70.48 20.48 70.48 20.48 38.01 31.02 38.01 31.02 29.52"/><polygon class="cls-1" points="83.8 61.53 83.8 29.52 73.78 29.52 73.78 70.48 100 70.48 100 61.53 83.8 61.53"/><polygon class="cls-1" points="37.91 29.52 37.91 70.48 65.31 70.48 65.31 61.53 47.58 61.53 47.58 38.01 65.31 38.01 65.31 29.52 37.91 29.52"/><polygon class="cls-2" points="61.53 44.62 51.15 44.62 51.15 48.67 51.15 54.85 61.53 54.85 61.53 44.62"/></svg>